<svg version="1.2" baseProfile="tiny-ps" xmlns="http://www.w3.org/2000/svg" viewBox="0 0 1469 181" width="1469" height="181">
	<title>logo-svg</title>
	<style>
		tspan { white-space:pre }
		.shp0 { fill: #5df5cf } 
		.shp1 { fill: #3a8c9e } 
	</style>
	<g id="Layer">
		<path id="Layer" class="shp0" d="M83.09 0L95.42 0C105.56 0 108.23 0.21 110.06 1.2C112.39 2.32 121.82 11.06 121.82 12.04C121.82 12.32 119.36 13.1 116.4 13.73C110.77 14.93 105.2 16.62 100.49 18.66L97.74 19.79L90.28 12.89C81.4 4.58 81.12 4.23 82.25 1.83L83.09 0Z" />
		<path id="Layer" fill-rule="evenodd" class="shp1" d="M140.55 12.75C156.89 12.6 166.54 15.21 172.52 21.41C175.48 24.51 175.69 24.93 175.69 28.52C175.69 32.11 175.48 32.53 172.52 35.63C170.76 37.39 167.74 39.65 165.69 40.56C145.62 49.64 92.95 40.98 92.95 28.59C92.95 22.75 105.7 16.55 122.53 14.15C125.41 13.73 128.58 13.24 129.57 13.1C130.55 12.96 135.48 12.82 140.55 12.75ZM154.22 31.2C156.75 34.36 160.69 33.66 162.03 29.79C162.74 27.6 162.67 27.18 161.19 25.63C156.96 21.2 150.41 26.34 154.22 31.2Z" />
		<path id="Layer" class="shp1" d="M83.66 17.04C84.85 18.24 84.71 20 83.16 21.41C82.04 22.46 79.99 22.53 66.47 22.53C56.83 22.46 50.77 22.18 50.21 21.69C49.08 20.77 49.01 18.17 50.14 17.04C51.33 15.84 82.46 15.84 83.66 17.04Z" />
		<path id="Layer" class="shp0" d="M57.67 25.49L73.59 25.7L74.29 27.67C75.56 31.34 74.15 31.69 57.11 31.69C44.08 31.69 41.83 31.55 40.7 30.49C39.15 29.08 39.08 28.31 40.63 26.62C41.69 25.42 42.95 25.35 57.67 25.49Z" />
		<path id="Layer" class="shp1" d="M66.83 34.5C79.92 34.5 82.11 34.65 83.23 35.7C84.78 37.11 84.85 38.31 83.37 39.72C82.46 40.7 79.92 40.84 66.62 40.84C55.42 40.84 50.77 40.63 50.14 40C48.87 38.73 49.08 36.12 50.56 35.28C51.26 34.86 57.88 34.5 66.83 34.5Z" />
		<path id="Layer" class="shp0" d="M98.66 36.62C98.87 36.62 99.29 36.9 99.71 37.25C100.84 38.31 110.13 41.41 115.91 42.6C118.94 43.24 121.61 43.87 121.75 44.08C121.96 44.22 119.57 46.97 116.47 50.07C112.81 53.73 110.06 55.91 108.44 56.33C107.11 56.76 101.12 57.04 95.13 57.04C85.98 57.04 84.08 56.83 82.95 55.84C82.25 55.21 81.68 54.22 81.68 53.59C81.68 52.95 85.35 48.94 89.92 44.57C94.5 40.21 98.37 36.69 98.66 36.62Z" />
		<path id="Layer" class="shp1" d="M352.18 6.18C362.67 11.86 370.95 27.42 368.48 36.56C366.63 43.23 362.8 46.69 357.73 46.19C354.15 45.94 352.67 44.83 349.46 40.26C341.8 29.52 338.1 26.31 334.39 27.17C330.2 28.29 325.75 31.37 322.54 35.69C320.44 38.54 320.32 39.52 321.55 43.72C323.65 50.64 328.71 54.71 342.17 60.15C356.87 65.95 360.94 69.04 365.39 77.06C371.94 89.17 369.47 106.7 359.59 117.69C350.32 128.07 337.85 132.88 320.56 132.88C312.29 132.88 307.6 130.04 305.99 123.87C303.77 115.47 308.83 110.41 321.06 108.93C324.14 108.55 329.21 107.94 332.17 107.57C337.85 106.83 341.43 104.48 343.78 99.91C347.48 92.99 344.15 88.43 331.43 83.61C310.07 75.34 302.66 68.3 299.2 52.98C294.51 32.73 303.77 14.33 323.4 4.95C332.05 0.75 343.29 1.36 352.18 6.18Z" />
		<path id="Layer" fill-rule="evenodd" class="shp1" d="M620.28 5.19C623.49 8.4 623.49 8.4 622.75 23.35C622.25 31.62 621.39 43.97 620.65 50.76C619.91 57.55 618.79 78.92 618.3 98.31C617.31 136.22 616.82 139.06 610.64 142.27C606.2 144.49 600.27 144.49 597.92 142.14C596.94 141.03 595.7 138.32 595.21 135.97C594.84 133.5 593.97 131.28 593.36 130.91C592.74 130.66 587.55 129.55 581.75 128.56C568.41 126.46 561.25 123 553.1 114.85C548.16 109.91 546.31 106.95 544.58 101.39C539.51 83.61 547.91 63.23 564.21 53.85C571.99 49.28 577.92 47.67 589.16 46.56C597.06 45.94 597.92 45.57 599.41 42.36C600.39 40.39 601.51 32.36 602.12 24.46C603.23 9.51 604.47 3.96 607.31 2.85C611.63 1.12 617.19 2.11 620.28 5.19ZM595.95 69.9L589.53 70.03C585.95 70.03 581.38 70.64 579.4 71.14C567.92 74.59 562.24 90.77 569.4 99.29C573.47 104.23 584.09 109.42 589.9 109.42L594.34 109.42L595.21 102.87C595.58 99.42 595.95 90.53 595.95 83.12L595.95 69.9Z" />
		<path id="Layer" fill-rule="evenodd" class="shp0" d="M1306.64 3.71C1310.1 6.18 1310.47 19.02 1307.88 42.73C1306.77 53.23 1305.41 77.93 1304.91 97.69C1304.17 127.57 1303.68 134.12 1301.95 137.45C1299.36 142.27 1296.52 144 1290.71 144C1287.01 144 1285.77 143.26 1283.8 139.92C1282.44 137.82 1281.33 134.98 1281.33 133.87C1281.33 130.91 1280.22 130.54 1268.48 128.56C1245.14 124.86 1230.32 110.28 1230.45 91.14C1230.57 80.77 1230.94 79.16 1235.02 71.26C1238.6 63.97 1246.38 55.95 1252.92 52.61C1259.35 49.4 1271.45 46.44 1278.49 46.44C1285.9 46.44 1287.01 44.83 1288.12 31.5C1290.22 7.17 1290.47 5.93 1293.31 3.71C1296.27 1.49 1303.68 1.49 1306.64 3.71ZM1276.76 70.03C1267.87 70.27 1265.03 71.14 1260.58 74.35C1252.43 80.65 1250.21 92.38 1256.01 99.29C1260.21 104.23 1270.71 109.42 1276.63 109.42C1281.2 109.42 1281.33 109.3 1281.45 104.73C1281.57 102.26 1281.82 98.8 1282.07 97.07C1282.44 93.74 1282.81 77.31 1282.69 72.62C1282.56 70.15 1281.94 69.9 1276.76 70.03Z" />
		<path id="Layer" class="shp1" d="M876.4 5.69C879.36 7.29 879.49 13.59 876.77 25.45C875.78 30.14 875.04 36.07 875.29 38.66L875.66 43.35L886.52 42.98C900.23 42.49 903.44 44.09 903.44 51.5C903.44 59.16 898.75 63.23 888.5 64.22C874.42 65.7 873.93 65.95 872.69 70.89C871.95 73.36 870.59 82.62 869.48 91.51C865.53 125.72 863.68 134.12 859.36 139.92C857.01 143.13 855.53 144 852.19 144C846.76 144 841.94 141.77 841.08 138.93C840.59 137.58 841.45 130.66 842.81 123.37C845.53 109.17 847.25 96.33 848.49 80.65L849.35 71.14L838.73 71.14C824.66 71.14 822.31 69.04 823.17 57.55C823.54 51.75 828.11 48.78 838.49 47.67C843.67 47.06 848.49 46.19 849.23 45.7C851.33 44.46 852.56 40.02 854.05 28.9C854.79 23.35 855.9 16.92 856.64 14.82C858 10.5 862.07 6.18 865.78 5.32C870.1 4.33 873.93 4.45 876.4 5.69Z" />
		<path id="Layer" fill-rule="evenodd" class="shp0" d="M1106.83 16.8C1114.86 25.07 1113.13 33.35 1100.41 47.67C1097.32 51.13 1094.85 54.47 1094.85 55.08C1094.85 55.7 1098.07 58.42 1102.02 61.13C1111.53 67.56 1116.1 75.58 1116.84 87.68C1117.21 95.09 1116.84 97.56 1114.37 103.24C1106.83 120.04 1088.56 129.18 1062.62 129.18C1050.52 129.18 1044.1 127.33 1041.88 123.13C1041.01 121.64 1040.77 117.32 1041.14 112.26C1041.51 107.69 1042.99 87.68 1044.35 68.05C1046.82 32.48 1048.42 18.16 1050.64 14.08C1052.13 11 1057.81 8.4 1065.46 7.04C1082.13 3.96 1097.94 7.79 1106.83 16.8ZM1070.65 28.16C1069.42 30.01 1068.3 48.91 1069.42 48.91C1072.5 48.91 1083.25 39.89 1085.72 35.08C1087.32 31.99 1087.2 31.62 1084.23 29.27C1080.65 26.43 1072.13 25.69 1070.65 28.16ZM1068.18 72.62C1066.82 74.72 1065.22 100.65 1066.08 104.36C1066.7 107.07 1067.19 107.2 1073.24 106.58C1081.02 105.84 1089.17 101.89 1091.89 97.69C1096.46 90.65 1090.41 79.16 1079.54 74.1C1072.5 70.77 1069.54 70.4 1068.18 72.62Z" />
		<path id="Layer" class="shp1" d="M661.15 22.6C666.09 29.4 659.67 40.26 650.66 40.26C643.86 40.26 640.41 37.42 640.41 32.11C640.41 25.07 643.37 21 649.67 19.15C653 18.16 659.18 20.01 661.15 22.6Z" />
		<path id="Layer" class="shp0" d="M1216.62 18.16C1216.74 18.16 1218.47 18.65 1220.45 19.27C1231.56 23.22 1227.11 40.26 1215.01 40.26C1208.1 40.26 1204.76 37.55 1204.76 31.62C1204.76 26.19 1209.33 19.76 1213.78 18.9C1215.26 18.65 1216.49 18.28 1216.62 18.16Z" />
		<path id="Layer" fill-rule="evenodd" class="shp1" d="M804.53 35.82C808.6 37.92 814.16 45.7 815.76 51.5C818.85 62.12 815.89 91.88 809.59 114.48C806.87 124.36 804.4 128.93 799.96 132.14C797.12 134.36 796.01 134.36 788.97 133.25C778.1 131.4 762.17 123.25 755.01 115.84C747.35 108.06 745.5 104.23 746.11 97.44C747.6 82.62 758.34 74.47 780.2 71.63C786.99 70.77 793.29 69.41 794.28 68.54C796.87 66.44 796.38 61.88 793.04 58.05L790.2 54.59L783.53 57.18C779.83 58.54 773.9 61.01 770.32 62.62C764.27 65.21 763.53 65.33 760.56 63.73C755.87 61.01 754.64 56.19 757.23 50.76C759.45 46.07 767.36 41.25 780.57 36.44C787.98 33.72 799.83 33.47 804.53 35.82ZM791.44 90.77C787.24 89.78 773.9 91.76 770.81 93.74C767.97 95.59 767.85 96.21 769.08 99.05C770.69 102.38 777.98 106.7 784.64 108.31C789.71 109.42 791.68 106.83 792.92 97.56C793.66 92.01 793.41 91.14 791.44 90.77Z" />
		<path id="Layer" class="shp0" d="M1145.98 39.15C1149.44 40.76 1151.17 47.55 1149.81 53.85C1148.82 58.54 1151.04 58.79 1158.21 54.59C1165.37 50.39 1177.1 47.43 1182.9 48.41C1188.58 49.28 1192.41 53.11 1192.41 57.8C1192.41 65.33 1188.34 68.17 1171.42 72.87C1167.59 73.98 1161.17 76.94 1157.09 79.66C1148.45 85.09 1148.33 85.59 1148.08 103.24C1147.83 116.46 1146.72 122.88 1143.76 127.33C1142.03 129.92 1140.79 130.41 1135.24 130.41C1130.17 130.41 1127.95 129.8 1125.85 127.82C1123.26 125.35 1123.01 124.49 1123.75 116.33C1124.12 111.52 1125.11 97.81 1125.73 85.96C1127.09 62 1129.06 45.82 1130.79 42.49C1131.41 41.38 1132.89 39.77 1134.12 39.15C1136.97 37.42 1142.15 37.42 1145.98 39.15Z" />
		<path id="Layer" fill-rule="evenodd" class="shp0" d="M1380.98 44.83C1391.23 47.92 1391.23 48.78 1387.41 104.48C1385.31 134.86 1382.22 146.96 1373.2 159.68C1364.44 171.91 1354.56 177.34 1341.1 177.34C1332.58 177.34 1325.78 174.5 1319.73 168.57C1316.15 164.99 1315.78 163.88 1316.27 159.68C1316.65 157.09 1318 154.12 1319.24 153.26C1321.96 151.04 1328.75 150.91 1332.33 152.89C1336.77 155.23 1343.2 156.22 1346.41 154.99C1353.57 152.27 1360.36 141.65 1361.35 131.52L1361.97 125.47L1352.7 125.47C1341.34 125.47 1334.06 123.13 1327.51 117.08C1319.36 109.79 1317.88 105.84 1317.76 91.51C1317.76 84.72 1318.25 78.05 1318.87 76.69C1319.49 75.34 1320.23 73.11 1320.47 71.75C1321.09 68.05 1329.24 56.81 1333.56 53.48C1339.86 48.78 1348.14 44.83 1355.42 43.23C1363.2 41.5 1371.72 41.99 1380.98 44.83ZM1365.92 64.34L1360.73 63.97C1356.29 63.6 1354.93 64.22 1350.61 68.05C1341.1 76.69 1336.4 91.76 1341.1 98.92C1343.57 102.75 1346.65 104.36 1352.95 105.22C1363.57 106.7 1367.03 99.29 1366.29 76.69L1365.92 64.34Z" />
		<path id="Layer" class="shp1" d="M450.85 45.82C454.92 49.77 454.92 56.07 450.97 71.26C443.31 100.4 424.42 144.12 412.69 159.43C402.93 172.28 395.28 176.48 387.87 172.89C382.8 170.55 380.58 167.21 381.57 163.26C381.94 161.78 385.52 157.09 389.72 152.76C396.63 145.48 403.18 134.24 405.03 126.58C405.53 124.24 404.54 121.52 401.33 116.09C393.42 103.12 382.43 80.65 379.1 70.52C375.39 59.03 375.64 53.85 380.58 48.66C384.65 44.46 393.05 43.72 396.14 47.3C397.13 48.54 399.97 55.82 402.44 63.36C407.5 78.79 416.15 98.31 417.87 98.31C418.49 98.31 420.22 93.98 421.7 88.67C430.96 56.56 434.92 47.06 440.35 44.34C444.92 41.99 447.51 42.36 450.85 45.82Z" />
		<path id="Layer" fill-rule="evenodd" class="shp1" d="M949.88 42.86C963.46 42.61 973.46 50.02 979.64 64.84C984.33 76.45 982.72 86.33 975.31 90.15C969.02 93.37 953.46 99.17 945.18 101.39C937.9 103.24 937.03 103.86 938.39 105.47C942.47 110.53 954.32 112.14 962.35 108.8C968.65 106.09 973.34 106.46 975.56 109.67C981.74 118.43 973.22 126.83 955.93 129.3C940.74 131.4 923.94 124.11 916.41 112.01C910.98 103.37 909.12 94.97 909.86 82.13C910.23 73.61 911.1 70.52 913.94 65.09C918.63 56.56 928.64 47.43 936.29 44.83C939.63 43.85 945.68 42.86 949.88 42.86ZM940.61 66.44C934.93 69.16 931.85 74.22 931.85 80.4C931.85 83.49 932.09 83.61 935.92 82.87C943.7 81.26 955.93 77.19 958.15 75.58C960.13 74.1 960.25 73.36 959.01 70.89C958.15 69.28 956.3 67.06 954.82 65.95C951.36 63.11 947.16 63.23 940.61 66.44Z" />
		<path id="Layer" fill-rule="evenodd" class="shp0" d="M1450.14 45.82C1464.96 53.23 1473.97 76.2 1466.07 86.57C1462.86 90.65 1455.57 93.98 1434.7 100.53C1424.08 103.86 1423.47 104.23 1425.44 106.09C1430.63 110.78 1442.24 112.14 1448.04 108.8C1449.77 107.81 1453.35 107.07 1456.19 106.95C1460.39 106.95 1461.5 107.44 1462.61 110.04C1466.07 117.69 1462.98 123 1453.23 126.83C1442.73 130.78 1429.76 130.54 1420.87 126.34C1406.92 119.55 1403.83 116.33 1398.89 103.12C1395.06 92.87 1395.56 75.46 1399.88 66.81C1404.57 57.55 1415.44 47.06 1422.85 44.71C1432.6 41.75 1442.73 42.24 1450.14 45.82ZM1427.17 66.44C1421.61 69.16 1418.4 74.22 1418.4 80.4C1418.4 84.1 1417.91 84.1 1429.76 81.14C1446.68 76.94 1449.89 73.11 1442.11 66.57C1438.04 63.11 1434.21 63.11 1427.17 66.44Z" />
		<path id="Layer" class="shp1" d="M482.46 46.32C485.18 48.41 485.42 49.77 485.79 61.13C486.04 68.05 486.66 73.61 487.28 73.61C487.77 73.61 489.13 72.25 490.24 70.52C494.32 64.34 507.65 51.13 512.1 48.78C517.78 45.94 525.19 45.7 529.02 48.29C530.62 49.53 532.47 53.11 533.71 57.06C535.44 63.11 535.44 65.7 534.2 77.68C533.34 85.34 532.47 98.06 532.1 105.96C531.49 118.68 531.12 120.9 528.77 123.37C525.31 127.2 518.03 128.56 513.46 126.46C510.12 124.86 510.12 124.73 510.12 112.51C510.12 105.71 510.62 94.35 511.23 87.19L512.22 74.22L507.41 79.29C500 87.31 495.43 94.23 487.77 108.8C477.77 128.19 475.92 130.41 470.11 130.41C465.05 130.41 462.21 128.19 460.97 123C460.48 121.27 461.22 108.8 462.58 95.22C463.94 81.63 465.42 66.07 465.79 60.76C466.41 52.12 466.9 50.51 469.99 47.43C474.06 43.35 478.39 42.98 482.46 46.32Z" />
		<path id="Layer" class="shp1" d="M729.2 49.53C733.77 51.87 735 56.94 732.53 62.86C730.18 68.79 727.47 69.9 716.11 69.9C704.74 69.9 698.2 72.37 693.01 78.67C686.22 86.7 686.34 92.25 693.38 99.91C700.18 107.32 703.26 107.81 725.37 104.97C732.9 103.99 735.99 105.84 737.22 112.14C738.33 117.57 735.37 121.4 727.1 125.23C721.91 127.57 717.71 128.44 710.55 128.68C691.41 129.42 677.7 122.02 669.92 106.83C664.73 96.45 666.09 78.67 672.88 67.8C678.94 58.17 690.67 50.02 702.15 47.55C708.45 46.07 725 47.3 729.2 49.53Z" />
		<path id="Layer" class="shp1" d="M656.46 53.48L660.16 56.94L658.44 64.34C657.45 68.42 656.34 74.47 655.84 77.68C655.47 81.02 654.85 84.97 654.48 86.33C654.24 87.81 653.62 95.71 653.13 103.86C652.76 112.01 652.01 120.04 651.52 121.77C650.29 126.34 643.49 130.41 637.2 130.41C627.69 130.41 627.32 127.7 632.26 88.67C635.71 61.5 637.44 55.45 642.63 52.24C647.57 49.28 652.14 49.65 656.46 53.48Z" />
		<path id="Layer" class="shp0" d="M1220.2 53.23C1223.9 56.81 1223.9 57.43 1220.82 72.37C1219.46 78.79 1217.85 92.13 1217.11 102.01C1216.37 111.89 1215.51 121.15 1215.14 122.76C1214.39 126.71 1207.73 130.41 1201.3 130.41C1196.49 130.41 1195.87 130.04 1194.27 126.21C1193.28 123.99 1192.78 120.16 1193.15 117.94C1193.4 115.59 1195.01 102.5 1196.74 88.92C1199.95 61.88 1201.8 55.45 1206.98 52.24C1211.8 49.28 1216.74 49.65 1220.2 53.23Z" />
		<path id="Layer" class="shp1" d="M0 78.87L50.98 78.87L102.04 78.87L99.71 84.64C98.44 87.88 95.06 96.4 92.18 103.66L86.97 116.89L84.5 117.32C80.56 118.02 72.53 120.41 68.02 122.32C47.53 130.91 31.55 153.02 29.79 175.2L29.36 180.97L14.72 180.97L0 180.97L0 129.92L0 78.87Z" />
		<path id="Layer" class="shp0" d="M148.16 78.87L183.58 78.87L219 78.87L219 129.92L219 180.97L203.51 180.97L188.02 180.97L187.73 179.35C187.52 178.51 187.24 176.05 187.03 173.93C185.55 158.93 175.62 141.68 163.02 132.03C154.43 125.48 147.38 122.25 134.71 119.01C133.02 118.58 131.68 117.95 131.68 117.53C131.68 117.18 135.41 108.3 139.92 97.88L148.16 78.87Z" />
	</g>
</svg>