<svg version="1.2" baseProfile="tiny-ps" xmlns="http://www.w3.org/2000/svg" viewBox="0 0 1442 181" width="1442" height="181">
	<title>logo-svg</title>
	<style>
		tspan { white-space:pre }
		.shp0 { fill: #5df5cf } 
		.shp1 { fill: #3a8c9e } 
	</style>
	<g id="Layer">
		<path id="Layer" class="shp0" d="M83.09 0L95.42 0C105.56 0 108.23 0.21 110.06 1.2C112.39 2.32 121.82 11.06 121.82 12.04C121.82 12.32 119.36 13.1 116.4 13.73C110.77 14.93 105.2 16.62 100.49 18.66L97.74 19.79L90.28 12.89C81.4 4.58 81.12 4.23 82.25 1.83L83.09 0Z" />
		<path id="Layer" fill-rule="evenodd" class="shp1" d="M140.55 12.75C156.89 12.6 166.54 15.21 172.52 21.41C175.48 24.51 175.69 24.93 175.69 28.52C175.69 32.11 175.48 32.53 172.52 35.63C170.76 37.39 167.74 39.65 165.69 40.56C145.62 49.64 92.95 40.98 92.95 28.59C92.95 22.75 105.7 16.55 122.53 14.15C125.41 13.73 128.58 13.24 129.57 13.1C130.55 12.96 135.48 12.82 140.55 12.75ZM154.22 31.2C156.75 34.36 160.69 33.66 162.03 29.79C162.74 27.6 162.67 27.18 161.19 25.63C156.96 21.2 150.41 26.34 154.22 31.2Z" />
		<path id="Layer" class="shp1" d="M83.66 17.04C84.85 18.24 84.71 20 83.16 21.41C82.04 22.46 79.99 22.53 66.47 22.53C56.83 22.46 50.77 22.18 50.21 21.69C49.08 20.77 49.01 18.17 50.14 17.04C51.33 15.84 82.46 15.84 83.66 17.04Z" />
		<path id="Layer" class="shp0" d="M57.67 25.49L73.59 25.7L74.29 27.67C75.56 31.34 74.15 31.69 57.11 31.69C44.08 31.69 41.83 31.55 40.7 30.49C39.15 29.08 39.08 28.31 40.63 26.62C41.69 25.42 42.95 25.35 57.67 25.49Z" />
		<path id="Layer" class="shp1" d="M66.83 34.5C79.92 34.5 82.11 34.65 83.23 35.7C84.78 37.11 84.85 38.31 83.37 39.72C82.46 40.7 79.92 40.84 66.62 40.84C55.42 40.84 50.77 40.63 50.14 40C48.87 38.73 49.08 36.12 50.56 35.28C51.26 34.86 57.88 34.5 66.83 34.5Z" />
		<path id="Layer" class="shp0" d="M98.66 36.62C98.87 36.62 99.29 36.9 99.71 37.25C100.84 38.31 110.13 41.41 115.91 42.6C118.94 43.24 121.61 43.87 121.75 44.08C121.96 44.22 119.57 46.97 116.47 50.07C112.81 53.73 110.06 55.91 108.44 56.33C107.11 56.76 101.12 57.04 95.13 57.04C85.98 57.04 84.08 56.83 82.95 55.84C82.25 55.21 81.68 54.22 81.68 53.59C81.68 52.95 85.35 48.94 89.92 44.57C94.5 40.21 98.37 36.69 98.66 36.62Z" />
		<path id="Layer" class="shp1" d="M325.18 6.18C335.67 11.86 343.95 27.42 341.48 36.56C339.63 43.23 335.8 46.69 330.73 46.19C327.15 45.94 325.67 44.83 322.46 40.26C314.8 29.52 311.1 26.31 307.39 27.17C303.2 28.29 298.75 31.37 295.54 35.69C293.44 38.54 293.32 39.52 294.55 43.72C296.65 50.64 301.71 54.71 315.17 60.15C329.87 65.95 333.94 69.04 338.39 77.06C344.94 89.17 342.47 106.7 332.59 117.69C323.32 128.07 310.85 132.88 293.56 132.88C285.29 132.88 280.6 130.04 278.99 123.87C276.77 115.47 281.83 110.41 294.06 108.93C297.14 108.55 302.21 107.94 305.17 107.57C310.85 106.83 314.43 104.48 316.78 99.91C320.48 92.99 317.15 88.43 304.43 83.61C283.07 75.34 275.66 68.3 272.2 52.98C267.51 32.73 276.77 14.33 296.4 4.95C305.05 0.75 316.29 1.36 325.18 6.18Z" />
		<path id="Layer" fill-rule="evenodd" class="shp1" d="M593.28 5.19C596.49 8.4 596.49 8.4 595.75 23.35C595.25 31.62 594.39 43.97 593.65 50.76C592.91 57.55 591.79 78.92 591.3 98.31C590.31 136.22 589.82 139.06 583.64 142.27C579.2 144.49 573.27 144.49 570.92 142.14C569.94 141.03 568.7 138.32 568.21 135.97C567.84 133.5 566.97 131.28 566.36 130.91C565.74 130.66 560.55 129.55 554.75 128.56C541.41 126.46 534.25 123 526.1 114.85C521.16 109.91 519.31 106.95 517.58 101.39C512.51 83.61 520.91 63.23 537.21 53.85C544.99 49.28 550.92 47.67 562.16 46.56C570.06 45.94 570.92 45.57 572.41 42.36C573.39 40.39 574.51 32.36 575.12 24.46C576.23 9.51 577.47 3.96 580.31 2.85C584.63 1.12 590.19 2.11 593.28 5.19ZM568.95 69.9L562.53 70.03C558.95 70.03 554.38 70.64 552.4 71.14C540.92 74.59 535.24 90.77 542.4 99.29C546.47 104.23 557.09 109.42 562.9 109.42L567.34 109.42L568.21 102.87C568.58 99.42 568.95 90.53 568.95 83.12L568.95 69.9Z" />
		<path id="Layer" fill-rule="evenodd" class="shp0" d="M1279.64 3.71C1283.1 6.18 1283.47 19.02 1280.88 42.73C1279.77 53.23 1278.41 77.93 1277.91 97.69C1277.17 127.57 1276.68 134.12 1274.95 137.45C1272.36 142.27 1269.52 144 1263.71 144C1260.01 144 1258.77 143.26 1256.8 139.92C1255.44 137.82 1254.33 134.98 1254.33 133.87C1254.33 130.91 1253.22 130.54 1241.48 128.56C1218.14 124.86 1203.32 110.28 1203.45 91.14C1203.57 80.77 1203.94 79.16 1208.02 71.26C1211.6 63.97 1219.38 55.95 1225.92 52.61C1232.35 49.4 1244.45 46.44 1251.49 46.44C1258.9 46.44 1260.01 44.83 1261.12 31.5C1263.22 7.17 1263.47 5.93 1266.31 3.71C1269.27 1.49 1276.68 1.49 1279.64 3.71ZM1249.76 70.03C1240.87 70.27 1238.03 71.14 1233.58 74.35C1225.43 80.65 1223.21 92.38 1229.01 99.29C1233.21 104.23 1243.71 109.42 1249.63 109.42C1254.2 109.42 1254.33 109.3 1254.45 104.73C1254.57 102.26 1254.82 98.8 1255.07 97.07C1255.44 93.74 1255.81 77.31 1255.69 72.62C1255.56 70.15 1254.94 69.9 1249.76 70.03Z" />
		<path id="Layer" class="shp1" d="M849.4 5.69C852.36 7.29 852.49 13.59 849.77 25.45C848.78 30.14 848.04 36.07 848.29 38.66L848.66 43.35L859.52 42.98C873.23 42.49 876.44 44.09 876.44 51.5C876.44 59.16 871.75 63.23 861.5 64.22C847.42 65.7 846.93 65.95 845.69 70.89C844.95 73.36 843.59 82.62 842.48 91.51C838.53 125.72 836.68 134.12 832.36 139.92C830.01 143.13 828.53 144 825.19 144C819.76 144 814.94 141.77 814.08 138.93C813.59 137.58 814.45 130.66 815.81 123.37C818.53 109.17 820.25 96.33 821.49 80.65L822.35 71.14L811.73 71.14C797.66 71.14 795.31 69.04 796.17 57.55C796.54 51.75 801.11 48.78 811.49 47.67C816.67 47.06 821.49 46.19 822.23 45.7C824.33 44.46 825.56 40.02 827.05 28.9C827.79 23.35 828.9 16.92 829.64 14.82C831 10.5 835.07 6.18 838.78 5.32C843.1 4.33 846.93 4.45 849.4 5.69Z" />
		<path id="Layer" fill-rule="evenodd" class="shp0" d="M1079.83 16.8C1087.86 25.07 1086.13 33.35 1073.41 47.67C1070.32 51.13 1067.85 54.47 1067.85 55.08C1067.85 55.7 1071.07 58.42 1075.02 61.13C1084.53 67.56 1089.1 75.58 1089.84 87.68C1090.21 95.09 1089.84 97.56 1087.37 103.24C1079.83 120.04 1061.56 129.18 1035.62 129.18C1023.52 129.18 1017.1 127.33 1014.88 123.13C1014.01 121.64 1013.77 117.32 1014.14 112.26C1014.51 107.69 1015.99 87.68 1017.35 68.05C1019.82 32.48 1021.42 18.16 1023.64 14.08C1025.13 11 1030.81 8.4 1038.46 7.04C1055.13 3.96 1070.94 7.79 1079.83 16.8ZM1043.65 28.16C1042.42 30.01 1041.3 48.91 1042.42 48.91C1045.5 48.91 1056.25 39.89 1058.72 35.08C1060.32 31.99 1060.2 31.62 1057.23 29.27C1053.65 26.43 1045.13 25.69 1043.65 28.16ZM1041.18 72.62C1039.82 74.72 1038.22 100.65 1039.08 104.36C1039.7 107.07 1040.19 107.2 1046.24 106.58C1054.02 105.84 1062.17 101.89 1064.89 97.69C1069.46 90.65 1063.41 79.16 1052.54 74.1C1045.5 70.77 1042.54 70.4 1041.18 72.62Z" />
		<path id="Layer" class="shp1" d="M634.15 22.6C639.09 29.4 632.67 40.26 623.66 40.26C616.86 40.26 613.41 37.42 613.41 32.11C613.41 25.07 616.37 21 622.67 19.15C626 18.16 632.18 20.01 634.15 22.6Z" />
		<path id="Layer" class="shp0" d="M1189.62 18.16C1189.74 18.16 1191.47 18.65 1193.45 19.27C1204.56 23.22 1200.11 40.26 1188.01 40.26C1181.1 40.26 1177.76 37.55 1177.76 31.62C1177.76 26.19 1182.33 19.76 1186.78 18.9C1188.26 18.65 1189.49 18.28 1189.62 18.16Z" />
		<path id="Layer" fill-rule="evenodd" class="shp1" d="M777.53 35.82C781.6 37.92 787.16 45.7 788.76 51.5C791.85 62.12 788.89 91.88 782.59 114.48C779.87 124.36 777.4 128.93 772.96 132.14C770.12 134.36 769.01 134.36 761.97 133.25C751.1 131.4 735.17 123.25 728.01 115.84C720.35 108.06 718.5 104.23 719.11 97.44C720.6 82.62 731.34 74.47 753.2 71.63C759.99 70.77 766.29 69.41 767.28 68.54C769.87 66.44 769.38 61.88 766.04 58.05L763.2 54.59L756.53 57.18C752.83 58.54 746.9 61.01 743.32 62.62C737.27 65.21 736.53 65.33 733.56 63.73C728.87 61.01 727.64 56.19 730.23 50.76C732.45 46.07 740.36 41.25 753.57 36.44C760.98 33.72 772.83 33.47 777.53 35.82ZM764.44 90.77C760.24 89.78 746.9 91.76 743.81 93.74C740.97 95.59 740.85 96.21 742.08 99.05C743.69 102.38 750.98 106.7 757.64 108.31C762.71 109.42 764.68 106.83 765.92 97.56C766.66 92.01 766.41 91.14 764.44 90.77Z" />
		<path id="Layer" class="shp0" d="M1118.98 39.15C1122.44 40.76 1124.17 47.55 1122.81 53.85C1121.82 58.54 1124.04 58.79 1131.21 54.59C1138.37 50.39 1150.1 47.43 1155.9 48.41C1161.58 49.28 1165.41 53.11 1165.41 57.8C1165.41 65.33 1161.34 68.17 1144.42 72.87C1140.59 73.98 1134.17 76.94 1130.09 79.66C1121.45 85.09 1121.33 85.59 1121.08 103.24C1120.83 116.46 1119.72 122.88 1116.76 127.33C1115.03 129.92 1113.79 130.41 1108.24 130.41C1103.17 130.41 1100.95 129.8 1098.85 127.82C1096.26 125.35 1096.01 124.49 1096.75 116.33C1097.12 111.52 1098.11 97.81 1098.73 85.96C1100.09 62 1102.06 45.82 1103.79 42.49C1104.41 41.38 1105.89 39.77 1107.12 39.15C1109.97 37.42 1115.15 37.42 1118.98 39.15Z" />
		<path id="Layer" fill-rule="evenodd" class="shp0" d="M1353.98 44.83C1364.23 47.92 1364.23 48.78 1360.41 104.48C1358.31 134.86 1355.22 146.96 1346.2 159.68C1337.44 171.91 1327.56 177.34 1314.1 177.34C1305.58 177.34 1298.78 174.5 1292.73 168.57C1289.15 164.99 1288.78 163.88 1289.27 159.68C1289.65 157.09 1291 154.12 1292.24 153.26C1294.96 151.04 1301.75 150.91 1305.33 152.89C1309.77 155.23 1316.2 156.22 1319.41 154.99C1326.57 152.27 1333.36 141.65 1334.35 131.52L1334.97 125.47L1325.7 125.47C1314.34 125.47 1307.06 123.13 1300.51 117.08C1292.36 109.79 1290.88 105.84 1290.76 91.51C1290.76 84.72 1291.25 78.05 1291.87 76.69C1292.49 75.34 1293.23 73.11 1293.47 71.75C1294.09 68.05 1302.24 56.81 1306.56 53.48C1312.86 48.78 1321.14 44.83 1328.42 43.23C1336.2 41.5 1344.72 41.99 1353.98 44.83ZM1338.92 64.34L1333.73 63.97C1329.29 63.6 1327.93 64.22 1323.61 68.05C1314.1 76.69 1309.4 91.76 1314.1 98.92C1316.57 102.75 1319.65 104.36 1325.95 105.22C1336.57 106.7 1340.03 99.29 1339.29 76.69L1338.92 64.34Z" />
		<path id="Layer" class="shp1" d="M423.85 45.82C427.92 49.77 427.92 56.07 423.97 71.26C416.31 100.4 397.42 144.12 385.69 159.43C375.93 172.28 368.28 176.48 360.87 172.89C355.8 170.55 353.58 167.21 354.57 163.26C354.94 161.78 358.52 157.09 362.72 152.76C369.63 145.48 376.18 134.24 378.03 126.58C378.53 124.24 377.54 121.52 374.33 116.09C366.42 103.12 355.43 80.65 352.1 70.52C348.39 59.03 348.64 53.85 353.58 48.66C357.65 44.46 366.05 43.72 369.14 47.3C370.13 48.54 372.97 55.82 375.44 63.36C380.5 78.79 389.15 98.31 390.87 98.31C391.49 98.31 393.22 93.98 394.7 88.67C403.96 56.56 407.92 47.06 413.35 44.34C417.92 41.99 420.51 42.36 423.85 45.82Z" />
		<path id="Layer" fill-rule="evenodd" class="shp1" d="M922.88 42.86C936.46 42.61 946.46 50.02 952.64 64.84C957.33 76.45 955.72 86.33 948.31 90.15C942.02 93.37 926.46 99.17 918.18 101.39C910.9 103.24 910.03 103.86 911.39 105.47C915.47 110.53 927.32 112.14 935.35 108.8C941.65 106.09 946.34 106.46 948.56 109.67C954.74 118.43 946.22 126.83 928.93 129.3C913.74 131.4 896.94 124.11 889.41 112.01C883.98 103.37 882.12 94.97 882.86 82.13C883.23 73.61 884.1 70.52 886.94 65.09C891.63 56.56 901.64 47.43 909.29 44.83C912.63 43.85 918.68 42.86 922.88 42.86ZM913.61 66.44C907.93 69.16 904.85 74.22 904.85 80.4C904.85 83.49 905.09 83.61 908.92 82.87C916.7 81.26 928.93 77.19 931.15 75.58C933.13 74.1 933.25 73.36 932.01 70.89C931.15 69.28 929.3 67.06 927.82 65.95C924.36 63.11 920.16 63.23 913.61 66.44Z" />
		<path id="Layer" fill-rule="evenodd" class="shp0" d="M1423.14 45.82C1437.96 53.23 1446.97 76.2 1439.07 86.57C1435.86 90.65 1428.57 93.98 1407.7 100.53C1397.08 103.86 1396.47 104.23 1398.44 106.09C1403.63 110.78 1415.24 112.14 1421.04 108.8C1422.77 107.81 1426.35 107.07 1429.19 106.95C1433.39 106.95 1434.5 107.44 1435.61 110.04C1439.07 117.69 1435.98 123 1426.23 126.83C1415.73 130.78 1402.76 130.54 1393.87 126.34C1379.92 119.55 1376.83 116.33 1371.89 103.12C1368.06 92.87 1368.56 75.46 1372.88 66.81C1377.57 57.55 1388.44 47.06 1395.85 44.71C1405.6 41.75 1415.73 42.24 1423.14 45.82ZM1400.17 66.44C1394.61 69.16 1391.4 74.22 1391.4 80.4C1391.4 84.1 1390.91 84.1 1402.76 81.14C1419.68 76.94 1422.89 73.11 1415.11 66.57C1411.04 63.11 1407.21 63.11 1400.17 66.44Z" />
		<path id="Layer" class="shp1" d="M455.46 46.32C458.18 48.41 458.42 49.77 458.79 61.13C459.04 68.05 459.66 73.61 460.28 73.61C460.77 73.61 462.13 72.25 463.24 70.52C467.32 64.34 480.65 51.13 485.1 48.78C490.78 45.94 498.19 45.7 502.02 48.29C503.62 49.53 505.47 53.11 506.71 57.06C508.44 63.11 508.44 65.7 507.2 77.68C506.34 85.34 505.47 98.06 505.1 105.96C504.49 118.68 504.12 120.9 501.77 123.37C498.31 127.2 491.03 128.56 486.46 126.46C483.12 124.86 483.12 124.73 483.12 112.51C483.12 105.71 483.62 94.35 484.23 87.19L485.22 74.22L480.41 79.29C473 87.31 468.43 94.23 460.77 108.8C450.77 128.19 448.92 130.41 443.11 130.41C438.05 130.41 435.21 128.19 433.97 123C433.48 121.27 434.22 108.8 435.58 95.22C436.94 81.63 438.42 66.07 438.79 60.76C439.41 52.12 439.9 50.51 442.99 47.43C447.06 43.35 451.39 42.98 455.46 46.32Z" />
		<path id="Layer" class="shp1" d="M702.2 49.53C706.77 51.87 708 56.94 705.53 62.86C703.18 68.79 700.47 69.9 689.11 69.9C677.74 69.9 671.2 72.37 666.01 78.67C659.22 86.7 659.34 92.25 666.38 99.91C673.18 107.32 676.26 107.81 698.37 104.97C705.9 103.99 708.99 105.84 710.22 112.14C711.33 117.57 708.37 121.4 700.1 125.23C694.91 127.57 690.71 128.44 683.55 128.68C664.41 129.42 650.7 122.02 642.92 106.83C637.73 96.45 639.09 78.67 645.88 67.8C651.94 58.17 663.67 50.02 675.15 47.55C681.45 46.07 698 47.3 702.2 49.53Z" />
		<path id="Layer" class="shp1" d="M629.46 53.48L633.16 56.94L631.44 64.34C630.45 68.42 629.34 74.47 628.84 77.68C628.47 81.02 627.85 84.97 627.48 86.33C627.24 87.81 626.62 95.71 626.13 103.86C625.76 112.01 625.01 120.04 624.52 121.77C623.29 126.34 616.49 130.41 610.2 130.41C600.69 130.41 600.32 127.7 605.26 88.67C608.71 61.5 610.44 55.45 615.63 52.24C620.57 49.28 625.14 49.65 629.46 53.48Z" />
		<path id="Layer" class="shp0" d="M1193.2 53.23C1196.9 56.81 1196.9 57.43 1193.82 72.37C1192.46 78.79 1190.85 92.13 1190.11 102.01C1189.37 111.89 1188.51 121.15 1188.14 122.76C1187.39 126.71 1180.73 130.41 1174.3 130.41C1169.49 130.41 1168.87 130.04 1167.27 126.21C1166.28 123.99 1165.78 120.16 1166.15 117.94C1166.4 115.59 1168.01 102.5 1169.74 88.92C1172.95 61.88 1174.8 55.45 1179.98 52.24C1184.8 49.28 1189.74 49.65 1193.2 53.23Z" />
		<path id="Layer" class="shp1" d="M0 78.87L50.98 78.87L102.04 78.87L99.71 84.64C98.44 87.88 95.06 96.4 92.18 103.66L86.97 116.89L84.5 117.32C80.56 118.02 72.53 120.41 68.02 122.32C47.53 130.91 31.55 153.02 29.79 175.2L29.36 180.97L14.72 180.97L0 180.97L0 129.92L0 78.87Z" />
		<path id="Layer" class="shp0" d="M148.16 78.87L183.58 78.87L219 78.87L219 129.92L219 180.97L203.51 180.97L188.02 180.97L187.73 179.35C187.52 178.51 187.24 176.05 187.03 173.93C185.55 158.93 175.62 141.68 163.02 132.03C154.43 125.48 147.38 122.25 134.71 119.01C133.02 118.58 131.68 117.95 131.68 117.53C131.68 117.18 135.41 108.3 139.92 97.88L148.16 78.87Z" />
	</g>
</svg>