<svg version="1.2" baseProfile="tiny-ps" xmlns="http://www.w3.org/2000/svg" viewBox="0 0 1536 256" width="1536" height="256">
	<title>asset_OLT-svg</title>
	<style>
		tspan { white-space:pre }
		.shp0 { fill: none } 
		.shp1 { fill: #3a8c9e } 
		.shp2 { fill: #5df5cf } 
	</style>
	<g id="Graphics">
		<g id="Logo">
			<path id="Rectangle" class="shp0" d="M31 28L231 28L231 228L31 228L31 28Z" />
			<g id="Group">
				<path id="Combined-Shape" class="shp1" d="M85.5 28L126.64 51.75L126.64 99.25L85.5 123L44.36 99.25L44.36 51.75L85.5 28ZM176.5 133L217.64 156.75L217.64 204.25L176.5 228L135.36 204.25L135.36 156.75L176.5 133Z" />
				<path id="Combined-Shape" class="shp2" d="M176.5 28L217.64 51.75L217.64 99.25L176.5 123L135.36 99.25L135.36 51.75L176.5 28ZM85.5 133L126.64 156.75L126.64 204.25L85.5 228L44.36 204.25L44.36 156.75L85.5 133Z" />
			</g>
		</g>
		<path id="Syndi Bridge" fill="#47859f" aria-label="Syndi Bridge"  d="M289.24 162.6L287.44 160.4Q282.24 154 282.24 149.8Q282.24 143.8 290.84 135.4Q295.84 130.6 300.84 130.6Q307.04 130.6 316.04 139.6L317.04 140.6Q317.84 141.6 319.44 143.2Q321.04 144.8 325.64 147.6Q330.24 150.2 334.64 150.2Q353.24 150.2 353.24 135Q353.24 130.4 348.04 127.4Q343.04 124.2 335.44 122.8Q327.84 121.4 319.04 118.4Q310.24 115.2 302.64 111Q295.04 106.8 289.84 97.8Q284.84 88.6 284.84 75.8Q284.84 58.2 297.84 45.2Q311.04 32 333.64 32Q345.64 32 355.44 35.2Q365.44 38.2 369.24 41.4L373.24 44.4L374.24 45.2Q380.44 51 380.44 54.8Q380.44 59 375.64 66Q368.84 76 361.64 76Q357.44 76 351.24 72Q350.64 71.6 348.84 70Q347.24 68.4 345.84 67.6Q344.44 66.6 341.04 65.8Q337.84 64.8 333.44 64.8Q328.64 64.8 324.24 68Q320.04 71 320.04 76Q320.04 82 325.04 85.4Q330.24 88.8 337.84 90Q345.44 91.2 354.44 93.8Q363.44 96.2 371.04 99.8Q378.64 103.4 383.64 112.4Q388.84 121.2 388.84 134.4Q388.84 147.2 383.64 157.2Q378.44 167 370.04 172.4Q361.84 177.8 353.04 180.4Q344.24 183 335.44 183Q326.04 183 317.64 180.8Q309.24 178.4 303.84 175.2Q298.64 171.8 294.64 168.4Q290.84 165 289.24 162.6ZM491.84 76.8Q503.64 82 503.64 89.4Q503.64 92.6 500.64 99L500.64 99.2Q500.44 99.4 500.44 99.6L448.04 216.8Q446.44 220.6 445.24 222.6Q444.24 224.6 441.84 226.4Q439.44 228.2 436.24 228.2Q432.24 228.2 425.24 225.2Q413.44 220 413.44 212.8Q413.44 209.6 416.64 202.4Q424.04 185.4 432.64 167L392.84 100Q388.84 93.4 388.84 90.2Q388.84 83.8 399.64 77.4Q406.44 73.4 411.24 73.4Q414.04 73.4 416.44 75Q418.84 76.6 419.84 78.4Q421.04 80 423.24 83.6Q440.84 113.8 449.84 128.4Q450.84 125.2 469.04 85.4Q470.44 82.2 471.04 80.8Q471.84 79.4 473.24 77.6Q474.84 75.6 476.64 74.8Q478.44 74 481.04 74Q485.44 74 491.84 76.8ZM571.24 75.6Q591.24 75.6 604.44 91Q617.84 106.2 617.84 128.2L617.84 163.4Q617.84 168 617.44 170.4Q617.24 172.6 615.64 175.6Q614.24 178.4 610.44 179.6Q606.64 180.8 600.24 180.8Q595.04 180.8 591.64 179.8Q588.24 178.8 586.44 177.6Q584.64 176.2 583.64 173.4Q582.84 170.6 582.64 168.8Q582.64 167 582.64 163.2L582.64 128Q582.64 119.8 577.84 115.2Q573.24 110.6 565.24 110.6Q557.44 110.6 552.44 115.4Q547.64 120.2 547.64 128L547.64 163.4Q547.64 168 547.24 170.4Q547.04 172.6 545.44 175.6Q544.04 178.4 540.24 179.6Q536.44 180.8 530.04 180.8Q523.84 180.8 520.04 179.6Q516.24 178.4 514.64 175.4Q513.24 172.4 512.84 170.2Q512.64 167.8 512.64 163.2L512.64 92.4Q512.64 88 512.84 85.8Q513.24 83.4 514.84 80.6Q516.44 77.8 520.24 76.8Q524.04 75.6 530.24 75.6Q536.24 75.6 540.04 76.8Q543.84 78 545.24 80.4Q546.64 82.6 546.84 84.2Q547.24 85.8 547.24 88.4Q547.64 87.8 548.24 87Q549.04 86.2 551.24 84Q553.64 81.8 556.24 80.2Q558.84 78.4 562.84 77Q567.04 75.6 571.24 75.6ZM720.04 26.4Q726.24 26.4 730.04 27.6Q733.84 28.8 735.24 31.8Q736.84 34.8 737.04 37.2Q737.44 39.4 737.44 44L737.44 163.4Q737.44 168 737.04 170.4Q736.84 172.6 735.24 175.6Q733.64 178.4 729.84 179.6Q726.04 180.8 719.64 180.8Q704.44 180.8 702.84 171Q694.44 180.6 679.44 180.6Q661.44 180.6 646.64 165Q631.84 149.2 631.84 127.8Q631.84 107.4 646.64 91.6Q661.64 75.8 679.44 75.8Q694.24 75.8 702.44 85.8L702.44 43.8Q702.44 39.2 702.64 37Q703.04 34.6 704.44 31.8Q706.04 28.8 709.84 27.6Q713.64 26.4 720.04 26.4ZM672.04 140.4Q677.24 145.8 684.64 145.8Q692.04 145.8 696.84 140.4Q701.84 135 701.84 128.4Q701.84 122 697.04 116.4Q692.44 110.8 684.44 110.8Q676.44 110.8 671.64 116.4Q666.84 121.8 666.84 128.4Q666.84 135 672.04 140.4ZM753.44 163.4L753.44 93.2Q753.44 88.6 753.64 86.4Q754.04 84 755.44 81.2Q757.04 78.2 760.84 77Q764.64 75.8 771.04 75.8Q776.04 75.8 779.44 76.8Q783.04 77.8 784.64 79.2Q786.44 80.6 787.24 83.4Q788.24 86 788.24 88Q788.44 89.8 788.44 93.6L788.44 163.6Q788.44 168.2 788.04 170.6Q787.84 172.8 786.24 175.8Q784.84 178.6 781.04 179.8Q777.24 181 770.84 181Q764.64 181 760.84 179.8Q757.04 178.6 755.44 175.6Q754.04 172.6 753.64 170.4Q753.44 168.2 753.44 163.4ZM770.84 61.4Q764.64 61.4 760.84 60.2Q757.04 59 755.44 56Q754.04 53 753.64 50.8Q753.44 48.4 753.44 43.8Q753.44 39.2 753.64 37Q754.04 34.6 755.44 31.8Q757.04 28.8 760.84 27.6Q764.64 26.4 771.04 26.4Q777.24 26.4 781.04 27.6Q784.84 28.8 786.24 31.8Q787.84 34.8 788.04 37.2Q788.44 39.4 788.44 44Q788.44 48.6 788.04 51Q787.84 53.2 786.24 56.2Q784.84 59 781.04 60.2Q777.24 61.4 770.84 61.4Z" />
		<path id="Syndi Bridge" fill="#000000" aria-label="Syndi Bridge"  d="" />
		<path id="Syndi Bridge" fill="#5df5cf" aria-label="Syndi Bridge"  d="M959.44 102.4Q971.24 116.4 971.24 133.8Q970.84 153.8 957.84 166.8Q944.24 180.8 925.24 180.8L872.64 180.8Q867.44 180.8 864.04 179.8Q860.64 178.8 858.84 177.4Q857.04 176 856.04 173.2Q855.24 170.4 855.04 168.6Q855.04 166.6 855.04 162.8L855.04 51.8Q855.04 47 855.24 44.8Q855.64 42.6 857.24 39.6Q858.84 36.6 862.64 35.4Q866.44 34.2 872.84 34.2L923.24 34.2Q941.64 34.2 954.04 47Q967.04 60 967.04 78.2Q967.04 91.4 959.44 102.4ZM935.84 131.6Q935.84 127 934.64 124.2Q933.64 121.4 931.04 120.4Q928.44 119.2 926.44 119Q924.44 118.6 920.44 118.6Q912.64 118.6 909.04 115.8Q905.44 113 905.44 104Q905.44 95.6 909.04 92.8Q912.84 90 921.44 90Q924.04 90 925.44 89.8Q926.84 89.6 928.44 88.8Q930.24 87.8 930.84 85.8Q931.64 83.6 931.64 80Q931.64 73.6 928.24 71.6Q925.04 69.6 918.44 69.6L890.44 69.6L890.44 145.4L923.24 145.4Q925.24 145.4 926.64 145.2Q928.04 144.8 930.44 143.8Q933.04 142.6 934.44 139.6Q935.84 136.4 935.84 131.6ZM1064.64 88Q1064.64 96.6 1060.84 104.2Q1057.04 111.8 1049.84 111.8Q1046.24 111.8 1042.84 110.2Q1039.64 108.6 1036.24 108.6Q1028.84 108.6 1024.04 112.4Q1019.44 116.2 1019.44 121.6L1019.44 163.6Q1019.44 168.2 1019.04 170.6Q1018.84 172.8 1017.24 175.8Q1015.64 178.6 1011.84 179.8Q1008.04 181 1001.64 181Q996.64 181 993.04 180Q989.64 179 987.84 177.6Q986.24 176.2 985.24 173.6Q984.44 170.8 984.24 169Q984.24 167 984.24 163.2L984.24 93Q984.24 88.4 984.44 86.2Q984.84 83.8 986.24 81Q987.84 78 991.64 76.8Q995.44 75.6 1001.84 75.6Q1007.84 75.6 1011.64 76.8Q1015.44 78 1016.84 80.2Q1018.24 82.2 1018.64 83.6Q1019.04 85 1019.04 86.8Q1020.04 85.4 1021.84 83.4Q1023.84 81.4 1030.04 78Q1036.24 74.6 1042.64 74.6Q1045.64 74.6 1048.84 75.2Q1052.04 75.6 1055.84 76.8Q1059.64 78 1062.04 81Q1064.64 83.8 1064.64 88ZM1075.64 163.4L1075.64 93.2Q1075.64 88.6 1075.84 86.4Q1076.24 84 1077.64 81.2Q1079.24 78.2 1083.04 77Q1086.84 75.8 1093.24 75.8Q1098.24 75.8 1101.64 76.8Q1105.24 77.8 1106.84 79.2Q1108.64 80.6 1109.44 83.4Q1110.44 86 1110.44 88Q1110.64 89.8 1110.64 93.6L1110.64 163.6Q1110.64 168.2 1110.24 170.6Q1110.04 172.8 1108.44 175.8Q1107.04 178.6 1103.24 179.8Q1099.44 181 1093.04 181Q1086.84 181 1083.04 179.8Q1079.24 178.6 1077.64 175.6Q1076.24 172.6 1075.84 170.4Q1075.64 168.2 1075.64 163.4ZM1093.04 61.4Q1086.84 61.4 1083.04 60.2Q1079.24 59 1077.64 56Q1076.24 53 1075.84 50.8Q1075.64 48.4 1075.64 43.8Q1075.64 39.2 1075.84 37Q1076.24 34.6 1077.64 31.8Q1079.24 28.8 1083.04 27.6Q1086.84 26.4 1093.24 26.4Q1099.44 26.4 1103.24 27.6Q1107.04 28.8 1108.44 31.8Q1110.04 34.8 1110.24 37.2Q1110.64 39.4 1110.64 44Q1110.64 48.6 1110.24 51Q1110.04 53.2 1108.44 56.2Q1107.04 59 1103.24 60.2Q1099.44 61.4 1093.04 61.4ZM1212.84 26.4Q1219.04 26.4 1222.84 27.6Q1226.64 28.8 1228.04 31.8Q1229.64 34.8 1229.84 37.2Q1230.24 39.4 1230.24 44L1230.24 163.4Q1230.24 168 1229.84 170.4Q1229.64 172.6 1228.04 175.6Q1226.44 178.4 1222.64 179.6Q1218.84 180.8 1212.44 180.8Q1197.24 180.8 1195.64 171Q1187.24 180.6 1172.24 180.6Q1154.24 180.6 1139.44 165Q1124.64 149.2 1124.64 127.8Q1124.64 107.4 1139.44 91.6Q1154.44 75.8 1172.24 75.8Q1187.04 75.8 1195.24 85.8L1195.24 43.8Q1195.24 39.2 1195.44 37Q1195.84 34.6 1197.24 31.8Q1198.84 28.8 1202.64 27.6Q1206.44 26.4 1212.84 26.4ZM1164.84 140.4Q1170.04 145.8 1177.44 145.8Q1184.84 145.8 1189.64 140.4Q1194.64 135 1194.64 128.4Q1194.64 122 1189.84 116.4Q1185.24 110.8 1177.24 110.8Q1169.24 110.8 1164.44 116.4Q1159.64 121.8 1159.64 128.4Q1159.64 135 1164.84 140.4ZM1330.44 75.2Q1336.44 75.2 1340.04 76.4Q1343.64 77.6 1345.04 80.6Q1346.64 83.4 1346.84 85.6Q1347.24 87.8 1347.24 92.4L1347.24 175.2Q1347.24 198.2 1331.24 212.4Q1315.24 226.4 1295.24 226.4Q1280.04 226.4 1266.24 219Q1252.44 211.6 1252.44 205.6Q1252.44 198.2 1257.84 192.4L1258.44 191.8Q1262.24 187.6 1264.24 186Q1266.44 184.4 1269.24 184.4Q1272.04 184.4 1275.04 186.8Q1278.24 189.2 1283.24 191.8Q1288.44 194.2 1295.84 194.2Q1303.44 194.2 1308.24 188.2Q1313.04 182.2 1313.04 173.8L1313.04 167.8L1312.64 168.2Q1312.44 168.6 1311.84 169.2Q1311.44 169.8 1310.64 170.6Q1309.84 171.4 1308.64 172.2Q1307.64 173 1306.24 173.8Q1305.04 174.6 1303.24 175.4Q1301.44 176 1299.44 176.6Q1297.44 177.2 1294.84 177.6Q1292.44 177.8 1289.84 177.8Q1272.24 177.8 1257.64 162.6Q1243.24 147.2 1243.24 126.4Q1243.24 106.4 1257.84 91Q1272.44 75.6 1289.84 75.6Q1296.64 75.6 1302.24 78.2Q1307.84 80.6 1309.84 82.8Q1312.04 84.8 1313.24 86.6Q1313.84 81 1317.24 78.2Q1320.84 75.2 1330.44 75.2ZM1295.04 143.8Q1302.24 143.8 1307.04 138.6Q1311.84 133.2 1311.84 126.8Q1311.84 120.6 1307.24 115.2Q1302.64 109.6 1294.64 109.6Q1287.04 109.6 1282.24 115Q1277.44 120.4 1277.44 126.8Q1277.44 133.4 1282.44 138.6Q1287.64 143.8 1295.04 143.8ZM1464.84 114.8Q1464.84 128 1458.64 134Q1452.64 139.8 1445.24 139.8L1397.84 139.8Q1397.84 145.4 1404.44 149.2Q1411.04 153 1418.64 153Q1424.04 153 1428.84 152.2Q1433.64 151.4 1435.84 150.6L1438.04 149.8Q1442.84 147.6 1446.04 147.6Q1452.44 147.6 1457.04 156.6Q1459.64 162 1459.64 165.8Q1459.64 183.6 1417.04 183.6Q1402.24 183.6 1390.64 178.6Q1379.24 173.4 1372.84 165.2Q1366.44 156.8 1363.24 147.6Q1360.24 138.4 1360.24 128.8Q1360.24 103.6 1376.44 88.6Q1392.84 73.4 1417.24 73.4Q1427.04 73.4 1435.24 76.2Q1443.44 78.8 1448.84 83.2Q1454.24 87.4 1457.84 93Q1461.64 98.6 1463.24 104.2Q1464.84 109.6 1464.84 114.8ZM1397.44 121.6L1422.64 121.6Q1430.24 121.6 1430.24 115.2Q1430.24 110.6 1426.64 107.8Q1423.24 105 1416.64 105Q1410.24 105 1403.84 110.4Q1397.44 115.6 1397.44 121.6Z" />
	</g>
</svg>