<?xml version="1.0" standalone="no"?>
<!DOCTYPE svg PUBLIC "-//W3C//DTD SVG 20010904//EN"
 "http://www.w3.org/TR/2001/REC-SVG-20010904/DTD/svg10.dtd">
<svg version="1.0" xmlns="http://www.w3.org/2000/svg"
 width="1536.000000pt" height="396.000000pt" viewBox="0 0 1536.000000 396.000000"
 preserveAspectRatio="xMidYMid meet">

<g transform="translate(0.000000,396.000000) scale(0.100000,-0.100000)"
fill="#000000" stroke="none">
<path d="M1878 3254 c-16 -34 -12 -39 114 -157 l106 -98 39 16 c67 29 146 53
226 70 42 9 77 20 77 24 0 14 -134 138 -167 154 -26 14 -64 17 -208 17 l-175
0 -12 -26z" fill="#5df5cf" />
<path d="M2550 3094 c-14 -2 -59 -9 -100 -15 -239 -34 -420 -122 -420 -205 0
-176 748 -299 1033 -170 29 13 72 45 97 70 42 44 45 50 45 101 0 51 -3 57 -45
101 -85 88 -222 125 -454 123 -72 -1 -142 -3 -156 -5z m449 -178 c21 -22 22
-28 12 -59 -19 -55 -75 -65 -111 -20 -54 69 39 142 99 79z" fill="#3a8c9e" />
<path d="M1422 3038 c-16 -16 -15 -53 1 -66 8 -7 94 -11 231 -12 192 0 221 1
237 16 22 20 24 45 7 62 -17 17 -459 17 -476 0z" fill="#3a8c9e" />
<path d="M1287 2902 c-22 -24 -21 -35 1 -55 16 -15 48 -17 233 -17 242 0 262
5 244 57 l-10 28 -226 3 c-209 2 -227 1 -242 -16z" fill="#5df5cf" />
<path d="M1428 2779 c-21 -12 -24 -49 -6 -67 9 -9 75 -12 234 -12 189 0 225 2
238 16 21 20 20 37 -2 57 -16 15 -47 17 -233 17 -127 0 -221 -5 -231 -11z" fill="#3a8c9e"/>
<path d="M1987 2647 c-65 -62 -117 -119 -117 -128 0 -9 8 -23 18 -32 16 -14
43 -17 173 -17 85 0 170 4 189 10 23 6 62 37 114 89 44 44 78 83 75 85 -2 3
-40 12 -83 21 -82 17 -214 61 -230 76 -6 5 -12 9 -15 9 -4 -1 -59 -51 -124
-113z" fill="#5df5cf"/>
<path d="M5083 2686 c-159 -76 -234 -225 -196 -389 28 -124 88 -181 261 -248
103 -39 130 -76 100 -132 -19 -37 -48 -56 -94 -62 -24 -3 -65 -8 -90 -11 -99
-12 -140 -53 -122 -121 13 -50 51 -73 118 -73 140 0 241 39 316 123 80 89 100
231 47 329 -36 65 -69 90 -188 137 -109 44 -150 77 -167 133 -10 34 -9 42 8
65 26 35 62 60 96 69 30 7 60 -19 122 -106 26 -37 38 -46 67 -48 41 -4 72 24
87 78 20 74 -47 200 -132 246 -72 39 -163 44 -233 10z" fill="#3a8c9e" />
<path d="M7382 2703 c-23 -9 -33 -54 -42 -175 -5 -64 -14 -129 -22 -145 -12
-26 -19 -29 -83 -34 -91 -9 -139 -22 -202 -59 -132 -76 -200 -241 -159 -385
14 -45 29 -69 69 -109 66 -66 124 -94 232 -111 47 -8 89 -17 94 -19 5 -3 12
-21 15 -41 4 -19 14 -41 22 -50 19 -19 67 -19 103 -1 50 26 54 49 62 356 4
157 13 330 19 385 6 55 13 155 17 222 6 121 6 121 -20 147 -25 25 -70 33 -105
19z m-92 -650 c0 -60 -3 -132 -6 -160 l-7 -53 -36 0 c-47 0 -133 42 -166 82
-58 69 -12 200 81 228 16 4 53 9 82 9 l52 1 0 -107z" fill="#3a8c9e"/>
<path d="M12937 2696 c-23 -18 -25 -28 -42 -225 -9 -108 -18 -121 -78 -121
-57 0 -155 -24 -207 -50 -53 -27 -116 -92 -145 -151 -33 -64 -36 -77 -37 -161
-1 -155 119 -273 308 -303 95 -16 104 -19 104 -43 0 -9 9 -32 20 -49 16 -27
26 -33 56 -33 47 0 70 14 91 53 14 27 18 80 24 322 4 160 15 360 24 445 21
192 18 296 -10 316 -24 18 -84 18 -108 0z m-86 -558 c1 -38 -2 -171 -5 -198
-2 -14 -4 -42 -5 -62 -1 -37 -2 -38 -39 -38 -48 0 -133 42 -167 82 -47 56 -29
151 37 202 36 26 59 33 131 35 42 1 47 -1 48 -21z" fill="#5df5cf"/>
<path d="M9475 2683 c-30 -7 -63 -42 -74 -77 -6 -17 -15 -69 -21 -114 -12 -90
-22 -126 -39 -136 -6 -4 -45 -11 -87 -16 -84 -9 -121 -33 -124 -80 -7 -93 12
-110 126 -110 l86 0 -7 -77 c-10 -127 -24 -231 -46 -346 -11 -59 -18 -115 -14
-126 7 -23 46 -41 90 -41 27 0 39 7 58 33 35 47 50 115 82 392 9 72 20 147 26
167 10 40 14 42 128 54 83 8 121 41 121 103 0 60 -26 73 -137 69 l-88 -3 -3
38 c-2 21 4 69 12 107 22 96 21 147 -3 160 -20 10 -51 11 -86 3z" fill="#3a8c9e"/>
<path d="M11092 2669 c-62 -11 -108 -32 -120 -57 -18 -33 -31 -149 -51 -437
-11 -159 -23 -321 -26 -358 -3 -41 -1 -76 6 -88 18 -34 70 -49 168 -49 210 0
358 74 419 210 20 46 23 66 20 126 -6 98 -43 163 -120 215 -32 22 -58 44 -58
49 0 5 20 32 45 60 103 116 117 183 52 250 -72 73 -200 104 -335 79z m152
-180 c24 -19 25 -22 12 -47 -20 -39 -107 -112 -132 -112 -9 0 0 153 10 168 12
20 81 14 110 -9z m-38 -363 c88 -41 137 -134 100 -191 -22 -34 -88 -66 -151
-72 -49 -5 -53 -4 -58 18 -7 30 6 240 17 257 11 18 35 15 92 -12z" fill="#5df5cf"/>
<path d="M7725 2571 c-51 -15 -75 -48 -75 -105 0 -43 28 -66 83 -66 73 0 125
88 85 143 -16 21 -66 36 -93 28z" fill="#3a8c9e"/>
<path d="M12293 2573 c-36 -7 -73 -59 -73 -103 0 -48 27 -70 83 -70 98 0 134
138 44 170 -16 5 -30 9 -31 9 -1 -1 -11 -4 -23 -6z" fill="#5df5cf"/>
<path d="M8785 2431 c-107 -39 -171 -78 -189 -116 -21 -44 -11 -83 27 -105 24
-13 30 -12 79 9 29 13 77 33 107 44 l54 21 23 -28 c27 -31 31 -68 10 -85 -8
-7 -59 -18 -114 -25 -177 -23 -264 -89 -276 -209 -5 -55 10 -86 72 -149 58
-60 187 -126 275 -141 57 -9 66 -9 89 9 36 26 56 63 78 143 51 183 75 424 50
510 -13 47 -58 110 -91 127 -38 19 -134 17 -194 -5z m100 -495 c-10 -75 -26
-96 -67 -87 -54 13 -113 48 -126 75 -10 23 -9 28 14 43 25 16 133 32 167 24
16 -3 18 -10 12 -55z" fill="#3a8c9e"/>
<path d="M11648 2409 c-10 -5 -22 -18 -27 -27 -14 -27 -30 -158 -41 -352 -5
-96 -13 -207 -16 -246 -6 -66 -4 -73 17 -93 17 -16 35 -21 76 -21 45 0 55 4
69 25 24 36 33 88 35 195 2 143 3 147 73 191 33 22 85 46 116 55 137 38 170
61 170 122 0 38 -31 69 -77 76 -47 8 -142 -16 -200 -50 -58 -34 -76 -32 -68 6
11 51 -3 106 -31 119 -31 14 -73 14 -96 0z" fill="#5df5cf"/>
<path d="M13440 2376 c-59 -13 -126 -45 -177 -83 -35 -27 -101 -118 -106 -148
-2 -11 -8 -29 -13 -40 -5 -11 -9 -65 -9 -120 1 -116 13 -148 79 -207 53 -49
112 -68 204 -68 l75 0 -5 -49 c-8 -82 -63 -168 -121 -190 -26 -10 -78 -2 -114
17 -29 16 -84 15 -106 -3 -10 -7 -21 -31 -24 -52 -4 -34 -1 -43 28 -72 49 -48
104 -71 173 -71 109 0 189 44 260 143 73 103 98 201 115 447 31 451 31 458
-52 483 -75 23 -144 27 -207 13z m88 -271 c6 -183 -22 -243 -108 -231 -51 7
-76 20 -96 51 -38 58 0 180 77 250 35 31 46 36 82 33 l42 -3 3 -100z" fill="#5df5cf"/>
<path d="M6030 2367 c-44 -22 -76 -99 -151 -359 -12 -43 -26 -78 -31 -78 -14
0 -84 158 -125 283 -20 61 -43 120 -51 130 -25 29 -93 23 -126 -11 -40 -42
-42 -84 -12 -177 27 -82 116 -264 180 -369 26 -44 34 -66 30 -85 -15 -62 -68
-153 -124 -212 -34 -35 -63 -73 -66 -85 -8 -32 10 -59 51 -78 60 -29 122 5
201 109 95 124 248 478 310 714 32 123 32 174 -1 206 -27 28 -48 31 -85 12z" fill="#3a8c9e"/>
<path d="M10046 2363 c-62 -21 -143 -95 -181 -164 -23 -44 -30 -69 -33 -138
-6 -104 9 -172 53 -242 61 -98 197 -157 320 -140 140 20 209 88 159 159 -18
26 -56 29 -107 7 -65 -27 -161 -14 -194 27 -11 13 -4 18 55 33 67 18 193 65
244 91 60 31 73 111 35 205 -50 120 -131 180 -241 178 -34 0 -83 -8 -110 -16z
m150 -171 c12 -9 27 -27 34 -40 10 -20 9 -26 -7 -38 -18 -13 -117 -46 -180
-59 -31 -6 -33 -5 -33 20 0 50 25 91 71 113 53 26 87 27 115 4z" fill="#3a8c9e"/>
<path d="M13986 2364 c-60 -19 -148 -104 -186 -179 -35 -70 -39 -211 -8 -294
40 -107 65 -133 178 -188 72 -34 177 -36 262 -4 79 31 104 74 76 136 -9 21
-18 25 -52 25 -23 -1 -52 -7 -66 -15 -47 -27 -141 -16 -183 22 -16 15 -11 18
75 45 169 53 228 80 254 113 64 84 -9 270 -129 330 -60 29 -142 33 -221 9z
m156 -177 c63 -53 37 -84 -100 -118 -96 -24 -92 -24 -92 6 0 50 26 91 71 113
57 27 88 27 121 -1z" fill="#5df5cf"/>
<path d="M6270 2342 c-25 -25 -29 -38 -34 -108 -3 -43 -15 -169 -26 -279 -11
-110 -17 -211 -13 -225 10 -42 33 -60 74 -60 47 0 62 18 143 175 62 118 99
174 159 239 l39 41 -8 -105 c-5 -58 -9 -150 -9 -205 0 -99 0 -100 27 -113 37
-17 96 -6 124 25 19 20 22 38 27 141 3 64 10 167 17 229 10 97 10 118 -4 167
-10 32 -25 61 -38 71 -31 21 -91 19 -137 -4 -36 -19 -144 -126 -177 -176 -9
-14 -20 -25 -24 -25 -5 0 -10 45 -12 101 -3 92 -5 103 -27 120 -33 27 -68 24
-101 -9z" fill="#3a8c9e"/>
<path d="M8150 2341 c-93 -20 -188 -86 -237 -164 -55 -88 -66 -232 -24 -316
63 -123 174 -183 329 -177 58 2 92 9 134 28 67 31 91 62 82 106 -10 51 -35 66
-96 58 -179 -23 -204 -19 -259 41 -57 62 -58 107 -3 172 42 51 95 71 187 71
92 0 114 9 133 57 20 48 10 89 -27 108 -34 18 -168 28 -219 16z" fill="#3a8c9e"/>
<path d="M7668 2303 c-42 -26 -56 -75 -84 -295 -40 -316 -37 -338 40 -338 51
0 106 33 116 70 4 14 10 79 13 145 4 66 9 130 11 142 3 11 8 43 11 70 4 26 13
75 21 108 l14 60 -30 28 c-35 31 -72 34 -112 10z" fill="#3a8c9e"/>
<path d="M12238 2303 c-42 -26 -57 -78 -83 -297 -14 -110 -27 -216 -29 -235
-3 -18 1 -49 9 -67 13 -31 18 -34 57 -34 52 0 106 30 112 62 3 13 10 88 16
168 6 80 19 188 30 240 25 121 25 126 -5 155 -28 29 -68 32 -107 8z" fill="#5df5cf"/>
<path d="M710 1435 l0 -725 209 0 208 0 6 82 c25 315 252 629 543 751 64 27
178 61 234 71 l35 6 74 188 c41 103 89 224 107 270 l33 82 -725 0 -724 0 0
-725z" fill="#3a8c9e"/>
<path d="M2697 1890 c-64 -148 -117 -274 -117 -279 0 -6 19 -15 43 -21 180
-46 280 -92 402 -185 179 -137 320 -382 341 -595 3 -30 7 -65 10 -77 l4 -23
220 0 220 0 0 725 0 725 -503 0 -503 0 -117 -270z" fill="#5df5cf"/>
</g>
</svg>
