<svg version="1.2" baseProfile="tiny-ps" xmlns="http://www.w3.org/2000/svg" viewBox="0 0 325 325" width="325" height="325">
	<title>logo-svg</title>
	<style>
		tspan { white-space:pre }
		.shp0 { fill: #5df5cf } 
		.shp1 { fill: #3a8c9e } 
	</style>
	<g id="Layer">
		<path id="Layer" class="shp0" d="M125 34L142.5 34C156.9 34 160.7 34.3 163.3 35.7C166.6 37.3 180 49.7 180 51.1C180 51.5 176.5 52.6 172.3 53.5C164.3 55.2 156.4 57.6 149.7 60.5L145.8 62.1L135.2 52.3C122.6 40.5 122.2 40 123.8 36.6L125 34Z" />
		<path id="Layer" fill-rule="evenodd" class="shp1" d="M206.6 52.1C229.8 51.9 243.5 55.6 252 64.4C256.2 68.8 256.5 69.4 256.5 74.5C256.5 79.6 256.2 80.2 252 84.6C249.5 87.1 245.2 90.3 242.3 91.6C213.8 104.5 139 92.2 139 74.6C139 66.3 157.1 57.5 181 54.1C185.1 53.5 189.6 52.8 191 52.6C192.4 52.4 199.4 52.2 206.6 52.1ZM226 78.3C229.6 82.8 235.2 81.8 237.1 76.3C238.1 73.2 238 72.6 235.9 70.4C229.9 64.1 220.6 71.4 226 78.3Z" />
		<path id="Layer" class="shp1" d="M125.8 58.2C127.5 59.9 127.3 62.4 125.1 64.4C123.5 65.9 120.6 66 101.4 66C87.7 65.9 79.1 65.5 78.3 64.8C76.7 63.5 76.6 59.8 78.2 58.2C79.9 56.5 124.1 56.5 125.8 58.2Z" />
		<path id="Layer" class="shp0" d="M88.9 70.2L111.5 70.5L112.5 73.3C114.3 78.5 112.3 79 88.1 79C69.6 79 66.4 78.8 64.8 77.3C62.6 75.3 62.5 74.2 64.7 71.8C66.2 70.1 68 70 88.9 70.2Z" />
		<path id="Layer" class="shp1" d="M101.9 83C120.5 83 123.6 83.2 125.2 84.7C127.4 86.7 127.5 88.4 125.4 90.4C124.1 91.8 120.5 92 101.6 92C85.7 92 79.1 91.7 78.2 90.8C76.4 89 76.7 85.3 78.8 84.1C79.8 83.5 89.2 83 101.9 83Z" />
		<path id="Layer" class="shp0" d="M147.1 86C147.4 86 148 86.4 148.6 86.9C150.2 88.4 163.4 92.8 171.6 94.5C175.9 95.4 179.7 96.3 179.9 96.6C180.2 96.8 176.8 100.7 172.4 105.1C167.2 110.3 163.3 113.4 161 114C159.1 114.6 150.6 115 142.1 115C129.1 115 126.4 114.7 124.8 113.3C123.8 112.4 123 111 123 110.1C123 109.2 128.2 103.5 134.7 97.3C141.2 91.1 146.7 86.1 147.1 86Z" />
		<path id="Layer" class="shp1" d="M7 146L79.4 146L151.9 146L148.6 154.2C146.8 158.8 142 170.9 137.9 181.2L130.5 200L127 200.6C121.4 201.6 110 205 103.6 207.7C74.5 219.9 51.8 251.3 49.3 282.8L48.7 291L27.9 291L7 291L7 218.5L7 146Z" />
		<path id="Layer" class="shp0" d="M217.4 146L267.7 146L318 146L318 218.5L318 291L296 291L274 291L273.6 288.7C273.3 287.5 272.9 284 272.6 281C270.5 259.7 256.4 235.2 238.5 221.5C226.3 212.2 216.3 207.6 198.3 203C195.9 202.4 194 201.5 194 200.9C194 200.4 199.3 187.8 205.7 173L217.4 146Z" />
	</g>
</svg>