<?xml version="1.0" encoding="UTF-8" standalone="no"?>
<svg
   xmlns:dc="http://purl.org/dc/elements/1.1/"
   xmlns:cc="http://creativecommons.org/ns#"
   xmlns:rdf="http://www.w3.org/1999/02/22-rdf-syntax-ns#"
   xmlns:svg="http://www.w3.org/2000/svg"
   xmlns="http://www.w3.org/2000/svg"
   width="256"
   height="256"
   viewBox="0 0 256 256"
   fill="none"
   version="1.1"
   id="svg863">
  <metadata
     id="metadata867">
    <rdf:RDF>
      <cc:Work
         rdf:about="">
        <dc:format>image/svg+xml</dc:format>
        <dc:type
           rdf:resource="http://purl.org/dc/dcmitype/StillImage" />
        <dc:title></dc:title>
      </cc:Work>
    </rdf:RDF>
  </metadata>
  <g
     clip-path="url(#clip0)"
     id="g851">
    <circle
       cx="128.137"
       cy="128.154"
       r="127.863"
       fill="#EDF0F2"
       id="circle833" />
    <path
       d="m 29.64891,209.66023 c -16.008856,-19.539 -25.8810167,-43.4 -28.3670063,-68.566 -3.3345967,-33.746 6.8357237,-67.437991 28.2732713,-93.664191 21.437547,-26.2263 52.385277,-42.83837 86.036385,-46.181867 25.09523,-2.493363 50.36388,2.531737 72.61084,14.439867 22.24697,11.9081 40.47307,30.1643 52.37351,52.4602 11.90045,22.295795 16.94078,47.629991 14.4836,72.797991 -2.45717,25.169 -12.30155,49.041 -28.28807,68.599 l -31.37532,-25.791 c 10.89996,-13.335 17.61193,-29.612 19.28731,-46.772 1.67537,-17.16 -1.76124,-34.433 -9.87515,-49.635096 -8.11402,-15.201695 -20.54088,-27.649095 -35.70921,-35.768295 -15.16862,-8.1192 -32.39704,-11.5454 -49.50679,-9.8454 -22.944303,2.2797 -44.045798,13.6061 -58.661582,31.4877 -14.616782,17.881495 -21.551227,40.853091 -19.277639,63.862091 1.69522,17.158 8.426239,33.427 19.341459,46.749 z"
       fill="url(#paint0_linear)"
       id="path835"
       style="fill:url(#paint0_linear);stroke-width:0.998593" />
    <path
       d="M128.485 240.97C190.609 240.97 240.97 190.609 240.97 128.485C240.97 66.3612 190.609 16 128.485 16C66.3612 16 16 66.3612 16 128.485C16 190.609 66.3612 240.97 128.485 240.97Z"
       fill="white"
       id="path837"
       style="fill:#ffffff;fill-opacity:1" />
    <path
       d="M129.23 147.946L162.284 128.753L123 108.5L129.23 147.946Z"
       fill="#AAB8C1"
       id="path839" />
    <path
       d="M96.172 128.753L129.23 147.946V112.5L96.172 128.753Z"
       fill="#AAB8C1"
       id="path841" />
    <path
       d="M129.233 74.8786L96.1747 128.756L139.5 109.5L129.233 74.8786Z"
       fill="#283947"
       id="path843" />
    <path
       d="M129.23 74.8775V113.985L162.284 128.755L129.23 74.8775Z"
       fill="#657786"
       id="path845" />
    <path
       d="M129.23 180.672L133.5 156.5L96.172 134.911L129.23 180.672Z"
       fill="#283947"
       id="path847" />
    <path
       d="M129.23 154.099V180.672L162.306 134.911L129.23 154.099Z"
       fill="#657786"
       id="path849" />
  </g>
  <defs
     id="defs861">
    <linearGradient
       id="paint0_linear"
       x1="96.1718"
       y1="13.61"
       x2="136.266"
       y2="235.903"
       gradientUnits="userSpaceOnUse"
       gradientTransform="matrix(0,1,-0.99718799,0,255.95674,0.35024)">
      <stop
         stop-color="#27D3A2"
         id="stop853"
         style="stop-color:#3a8c9e;stop-opacity:1" />
      <stop
         offset="1"
         stop-color="#9388FD"
         id="stop855"
         style="stop-color:#5df5cf;stop-opacity:1" />
    </linearGradient>
    <clipPath
       id="clip0">
      <rect
         width="256"
         height="256"
         fill="white"
         id="rect858" />
    </clipPath>
  </defs>
</svg>
