<?xml version="1.0" encoding="UTF-8" standalone="no"?>
<svg
   xmlns:dc="http://purl.org/dc/elements/1.1/"
   xmlns:cc="http://creativecommons.org/ns#"
   xmlns:rdf="http://www.w3.org/1999/02/22-rdf-syntax-ns#"
   xmlns:svg="http://www.w3.org/2000/svg"
   xmlns="http://www.w3.org/2000/svg"
   width="64"
   height="64"
   viewBox="0 0 64 64"
   fill="none"
   version="1.1"
   id="svg870">
  <metadata
     id="metadata874">
    <rdf:RDF>
      <cc:Work
         rdf:about="">
        <dc:format>image/svg+xml</dc:format>
        <dc:type
           rdf:resource="http://purl.org/dc/dcmitype/StillImage" />
        <dc:title></dc:title>
      </cc:Work>
    </rdf:RDF>
  </metadata>
  <g
     clip-path="url(#clip0)"
     id="g843">
    <g
       filter="url(#filter0_d)"
       id="g835">
      <circle
         cx="32.002399"
         cy="31.998301"
         r="30.2292"
         transform="rotate(-5.6583,32.0024,31.9983)"
         fill="#edf0f2"
         id="circle833" />
    </g>
    <path
       d="m 8.5201517,51.13526 c -3.7956,-4.6194 -6.1361,-10.2606 -6.7256,-16.2103 -0.7904,-7.9782 1.6208,-15.9436 6.7033,-22.144 C 13.580352,6.5805603 20.917751,2.6531399 28.895951,1.8626699 c 5.9497,-0.58948 11.9405,0.59855 17.2149,3.4138504 5.2745,2.81531 9.59561,7.1314397 12.41705,12.4026397 2.82143,5.2711 4.01642,11.2606 3.43386,17.2109 -0.58256,5.9503 -2.91652,11.5942 -6.70672,16.2181 l -7.43869,-6.0975 c 2.5843,-3.1527 4.1756,-7.0008 4.5728,-11.0578 0.3972,-4.0571 -0.4176,-8.1408 -2.3413,-11.7347 -1.9237,-3.594 -4.8699,-6.5368 -8.4661,-8.4564 -3.5962,-1.9195 -7.6809,-2.7295 -11.7374,-2.3276 -5.4397,0.539 -10.4425,3.2168 -13.9079,7.4443 -3.465299,4.2275 -5.109299,9.6585 -4.570399,15.0982 0.402,4.0566 1.9978,7.9029 4.585599,11.0525 z"
       fill="url(#paint0_linear)"
       id="path837"
       style="fill:url(#paint0_linear)" />
    <path
       d="m 32.0025,58.5915 c 14.6872,0 26.5936,-11.9063 26.5936,-26.5936 0,-14.6872 -11.9064,-26.5936 -26.5936,-26.5936 -14.6873,0 -26.59364,11.9064 -26.59364,26.5936 0,14.6873 11.90634,26.5936 26.59364,26.5936 z"
       fill="#ffffff"
       id="path839" />
    <path
       d="m 34.2481,32.763 v -0.0029 c -0.1262,0.0088 -0.7778,0.047 -2.2276,0.047 -1.1592,0 -1.9721,-0.0323 -2.2597,-0.047 v 0.0029 c -4.458,-0.1966 -7.7831,-0.9714 -7.7831,-1.9017 0,-0.9274 3.328,-1.7051 7.7831,-1.9018 v 3.0317 c 0.2905,0.0205 1.1269,0.0704 2.2803,0.0704 1.3852,0 2.0778,-0.0587 2.207,-0.0704 v -3.0287 c 4.4491,0.1995 7.7654,0.9743 7.7654,1.9017 0,0.9274 -3.3192,1.7022 -7.7654,1.9018 z m 0,-4.1145 v -2.7118 h 6.2071 V 21.8016 H 23.5566 v 4.1351 h 6.2071 v 2.7118 c -5.0449,0.2318 -8.8367,1.2296 -8.8367,2.427 0,1.1974 3.7947,2.1953 8.8367,2.43 v 8.6929 h 4.4873 v -8.6929 c 5.0361,-0.2318 8.822,-1.2296 8.822,-2.427 0,-1.1945 -3.7859,-2.1953 -8.822,-2.4271"
       fill="#283947"
       id="path841" />
  </g>
  <defs
     id="defs868">
    <filter
       id="filter0_d"
       x="-3.05995"
       y="-2.10403"
       width="70.1247"
       height="70.1247"
       filterUnits="userSpaceOnUse"
       color-interpolation-filters="sRGB">
      <feFlood
         flood-opacity="0"
         result="BackgroundImageFix"
         id="feFlood845" />
      <feColorMatrix
         in="SourceAlpha"
         type="matrix"
         values="0 0 0 0 0 0 0 0 0 0 0 0 0 0 0 0 0 0 127 0"
         id="feColorMatrix847" />
      <feOffset
         dy="0.96"
         id="feOffset849" />
      <feGaussianBlur
         stdDeviation="1"
         id="feGaussianBlur851" />
      <feColorMatrix
         type="matrix"
         values="0 0 0 0 0 0 0 0 0 0 0 0 0 0 0 0 0 0 0.08 0"
         id="feColorMatrix853" />
      <feBlend
         mode="normal"
         in2="BackgroundImageFix"
         result="effect1_dropShadow"
         id="feBlend855" />
      <feBlend
         mode="normal"
         in="SourceGraphic"
         in2="effect1_dropShadow"
         result="shape"
         id="feBlend857" />
    </filter>
    <linearGradient
       id="paint0_linear"
       x1="24.445101"
       y1="4.9179502"
       x2="28.004673"
       y2="54.375935"
       gradientUnits="userSpaceOnUse"
       gradientTransform="rotate(90,31.966296,31.908455)">
      <stop
         stop-color="#27D3A2"
         id="stop860"
         style="stop-color:#5df5cf;stop-opacity:1" />
      <stop
         offset="1"
         stop-color="#9388FD"
         id="stop862"
         style="stop-color:#3a8c9e;stop-opacity:1" />
    </linearGradient>
    <clipPath
       id="clip0">
      <rect
         width="64"
         height="64"
         fill="white"
         id="rect865" />
    </clipPath>
  </defs>
</svg>
