<svg version="1.2" xmlns="http://www.w3.org/2000/svg" viewBox="0 0 53 53" width="53" height="53">
	<title>digitalbits-logo-white-svg</title>
	<defs>
		<clipPath clipPathUnits="userSpaceOnUse" id="cp1">
			<path d="m0 0h212.13v52.75h-212.13z"/>
		</clipPath>
	</defs>
	<style>
		.s0 { fill: #288dc1 } 
	</style>
	<g id="Clip-Path" clip-path="url(#cp1)">
		<g id="Layer">
			<path id="Layer" fill-rule="evenodd" class="s0" d="m52.8 26.4c0 14.5-11.9 26.4-26.4 26.4-14.6 0-26.4-11.9-26.4-26.4 0-14.6 11.8-26.4 26.4-26.4 14.5 0 26.4 11.8 26.4 26.4zm-28.3-14h-2.5v4c-1.1-0.7-2.3-1-3.6-0.9-1.3 0.1-2.5 0.6-3.4 1.4-1 0.9-1.6 2-1.8 3.3-0.2 1.2 0 2.5 0.6 3.7 0.6 1.1 1.5 2 2.7 2.5 1.2 0.5 2.5 0.6 3.7 0.3 1.2-0.3 2.3-1 3.1-2 0.8-1 1.2-2.3 1.2-3.5q0-0.1 0-0.1 0 0 0 0zm-5.7 11.9c-0.6 0-1.2-0.2-1.7-0.5-0.5-0.4-1-0.9-1.2-1.4-0.2-0.6-0.3-1.3-0.2-1.9 0.1-0.6 0.4-1.1 0.9-1.6 0.4-0.4 1-0.7 1.6-0.8 0.6-0.2 1.3-0.1 1.8 0.1 0.6 0.3 1.1 0.7 1.4 1.2 0.4 0.5 0.6 1.1 0.6 1.8 0 0.8-0.4 1.6-0.9 2.2-0.6 0.6-1.4 0.9-2.3 0.9zm9.4 16h2.6v-4c1 0.7 2.3 1.1 3.6 1 1.2-0.1 2.4-0.6 3.4-1.5 0.9-0.8 1.6-2 1.8-3.2 0.2-1.3 0-2.6-0.6-3.7-0.6-1.1-1.6-2-2.7-2.5-1.2-0.5-2.5-0.7-3.7-0.4-1.3 0.4-2.4 1.1-3.2 2.1-0.7 1-1.2 2.2-1.2 3.5zm5.7-11.9c0.7 0 1.3 0.2 1.8 0.5 0.5 0.4 0.9 0.9 1.2 1.4 0.2 0.6 0.3 1.3 0.1 1.9-0.1 0.6-0.4 1.1-0.8 1.6-0.5 0.4-1 0.7-1.6 0.9-0.7 0.1-1.3 0-1.9-0.2-0.5-0.3-1-0.7-1.4-1.2-0.3-0.5-0.5-1.1-0.5-1.7 0-0.9 0.3-1.7 0.9-2.3 0.6-0.6 1.4-0.9 2.2-0.9zm-6.4-13.3c-1 0.8-1.7 1.9-2.1 3.1-0.3 1.2-0.1 2.5 0.4 3.7 0.5 1.2 1.4 2.1 2.5 2.7 1.1 0.6 2.4 0.8 3.7 0.6 1.2-0.2 2.4-0.8 3.2-1.8 0.9-0.9 1.4-2.1 1.5-3.4 0.1-1.2-0.3-2.5-1-3.6h4v-2.5h-8.7c-1.3 0-2.5 0.4-3.5 1.2zm6.4 3.3c0.2 0.6 0.3 1.2 0.2 1.8-0.1 0.6-0.4 1.2-0.9 1.6-0.4 0.5-1 0.8-1.6 0.9-0.6 0.1-1.3 0.1-1.8-0.2-0.6-0.2-1.1-0.6-1.4-1.1-0.4-0.6-0.6-1.2-0.6-1.8 0-0.8 0.4-1.6 0.9-2.2 0.6-0.6 1.4-1 2.3-1 0.6 0 1.2 0.2 1.7 0.6 0.6 0.3 1 0.8 1.2 1.4zm-12.1 20.4c1.3 0 2.5-0.5 3.5-1.2 1-0.8 1.7-1.9 2-3.2 0.3-1.2 0.2-2.5-0.3-3.7-0.5-1.1-1.4-2.1-2.5-2.7-1.1-0.6-2.4-0.8-3.7-0.6-1.2 0.2-2.4 0.9-3.2 1.8-0.9 1-1.4 2.2-1.5 3.4-0.1 1.3 0.2 2.6 0.9 3.6h-3.9v2.6zm-0.1-2.6c-0.6 0-1.2-0.2-1.7-0.5-0.5-0.4-0.9-0.9-1.2-1.4-0.2-0.6-0.3-1.2-0.1-1.9 0.1-0.6 0.4-1.1 0.8-1.6 0.5-0.4 1-0.7 1.6-0.8 0.6-0.2 1.3-0.1 1.9 0.1 0.5 0.3 1 0.7 1.4 1.2 0.3 0.5 0.5 1.1 0.5 1.8 0 0.8-0.3 1.6-0.9 2.2-0.6 0.6-1.4 0.9-2.2 0.9z"/>
		</g>
	</g>
</svg>